<svg width="32" height="32" viewBox="0 0 32 32" fill="none" xmlns="http://www.w3.org/2000/svg">
<path d="M16 0C24.8366 0 32 7.16344 32 16C32 24.8366 24.8366 32 16 32C7.16344 32 0 24.8366 0 16C0 7.16344 7.16344 0 16 0ZM16.1064 9.19336C16.1061 12.9614 13.0511 16.0164 9.2832 16.0166C9.25366 16.0166 9.22379 16.0141 9.19434 16.0137V16.0186C9.22383 16.0182 9.25362 16.0166 9.2832 16.0166C13.0217 16.0167 16.0569 19.0235 16.1045 22.751H16.1084C16.1556 19.0532 19.1423 16.066 22.8398 16.0186V16.0137C19.113 15.9659 16.1068 12.9317 16.1064 9.19336C16.1064 9.16392 16.108 9.13385 16.1084 9.10449H16.1035C16.1039 9.13386 16.1064 9.16391 16.1064 9.19336Z" fill="url(#paint0_linear_1_354)"/>
<defs>
<linearGradient id="paint0_linear_1_354" x1="32" y1="15.9549" x2="5.81345e-08" y2="15.9549" gradientUnits="userSpaceOnUse">
<stop stop-color="white"/>
<stop offset="1" stop-color="#6F78A4"/>
</linearGradient>
</defs>
</svg>
