<svg width="118" height="29" viewBox="0 0 118 29" fill="none" xmlns="http://www.w3.org/2000/svg">
<path d="M11.7812 0C19.7894 0 26.2812 6.49187 26.2812 14.5C26.2812 22.5081 19.7894 29 11.7812 29H2.71875C1.21722 29 0 27.7828 0 26.2812V2.71875C0 1.21723 1.21722 0 2.71875 0H11.7812ZM12.7832 8.33105C12.7831 11.746 10.0144 14.5146 6.59961 14.5146C6.57302 14.5146 6.54604 14.5121 6.51953 14.5117V14.5166C6.54604 14.5163 6.57302 14.5147 6.59961 14.5146C9.98767 14.5147 12.7382 17.2401 12.7812 20.6182H12.7852C12.8279 17.2671 15.535 14.5598 18.8857 14.5166V14.5117C15.5084 14.4682 12.7833 11.7189 12.7832 8.33105C12.7832 8.3044 12.7848 8.27755 12.7852 8.25098H12.7812C12.7816 8.27755 12.7832 8.3044 12.7832 8.33105Z" fill="url(#paint0_linear_133_454)"/>
<path d="M35.955 27.45C34.375 27.45 33.005 27.1 31.845 26.4C30.695 25.7 29.8 24.715 29.16 23.445C28.52 22.175 28.2 20.685 28.2 18.975C28.2 17.205 28.515 15.675 29.145 14.385C29.775 13.095 30.66 12.1 31.8 11.4C32.95 10.7 34.305 10.35 35.865 10.35C37.465 10.35 38.83 10.72 39.96 11.46C41.09 12.19 41.945 13.24 42.525 14.61C43.105 15.98 43.37 17.615 43.32 19.515H41.07V18.735C41.03 16.635 40.575 15.05 39.705 13.98C38.845 12.91 37.585 12.375 35.925 12.375C34.185 12.375 32.85 12.94 31.92 14.07C31 15.2 30.54 16.81 30.54 18.9C30.54 20.94 31 22.525 31.92 23.655C32.85 24.775 34.165 25.335 35.865 25.335C37.025 25.335 38.035 25.07 38.895 24.54C39.765 24 40.45 23.225 40.95 22.215L43.005 23.01C42.365 24.42 41.42 25.515 40.17 26.295C38.93 27.065 37.525 27.45 35.955 27.45ZM29.76 19.515V17.67H42.135V19.515H29.76Z" fill="white"/>
<path d="M44.3 27L50.36 18.81L44.435 10.8H48.155L52.19 16.365L56.18 10.8H59.9L53.975 18.81L60.05 27H56.315L52.19 21.255L48.035 27H44.3Z" fill="white"/>
<path d="M70.92 27C70.01 27.19 69.11 27.265 68.22 27.225C67.34 27.185 66.55 26.995 65.85 26.655C65.16 26.315 64.635 25.785 64.275 25.065C63.985 24.465 63.825 23.86 63.795 23.25C63.775 22.63 63.765 21.925 63.765 21.135V6.3H65.955V21.045C65.955 21.725 65.96 22.295 65.97 22.755C65.99 23.205 66.095 23.605 66.285 23.955C66.645 24.625 67.215 25.025 67.995 25.155C68.785 25.285 69.76 25.255 70.92 25.065V27ZM60.3 12.69V10.8H70.92V12.69H60.3Z" fill="white"/>
<path d="M80.955 27.45C79.375 27.45 78.005 27.1 76.845 26.4C75.695 25.7 74.8 24.715 74.16 23.445C73.52 22.175 73.2 20.685 73.2 18.975C73.2 17.205 73.515 15.675 74.145 14.385C74.775 13.095 75.66 12.1 76.8 11.4C77.95 10.7 79.305 10.35 80.865 10.35C82.465 10.35 83.83 10.72 84.96 11.46C86.09 12.19 86.945 13.24 87.525 14.61C88.105 15.98 88.37 17.615 88.32 19.515H86.07V18.735C86.03 16.635 85.575 15.05 84.705 13.98C83.845 12.91 82.585 12.375 80.925 12.375C79.185 12.375 77.85 12.94 76.92 14.07C76 15.2 75.54 16.81 75.54 18.9C75.54 20.94 76 22.525 76.92 23.655C77.85 24.775 79.165 25.335 80.865 25.335C82.025 25.335 83.035 25.07 83.895 24.54C84.765 24 85.45 23.225 85.95 22.215L88.005 23.01C87.365 24.42 86.42 25.515 85.17 26.295C83.93 27.065 82.525 27.45 80.955 27.45ZM74.76 19.515V17.67H87.135V19.515H74.76Z" fill="white"/>
<path d="M92.1 27V10.8H94.08V14.7L93.69 14.19C93.87 13.71 94.105 13.27 94.395 12.87C94.685 12.46 95 12.125 95.34 11.865C95.76 11.495 96.25 11.215 96.81 11.025C97.37 10.825 97.935 10.71 98.505 10.68C99.075 10.64 99.595 10.68 100.065 10.8V12.87C99.475 12.72 98.83 12.685 98.13 12.765C97.43 12.845 96.785 13.125 96.195 13.605C95.655 14.025 95.25 14.53 94.98 15.12C94.71 15.7 94.53 16.32 94.44 16.98C94.35 17.63 94.305 18.275 94.305 18.915V27H92.1Z" fill="white"/>
<path d="M107.735 27.45C106.515 27.45 105.49 27.23 104.66 26.79C103.84 26.35 103.225 25.765 102.815 25.035C102.405 24.305 102.2 23.51 102.2 22.65C102.2 21.77 102.375 21.02 102.725 20.4C103.085 19.77 103.57 19.255 104.18 18.855C104.8 18.455 105.515 18.15 106.325 17.94C107.145 17.74 108.05 17.565 109.04 17.415C110.04 17.255 111.015 17.12 111.965 17.01C112.925 16.89 113.765 16.775 114.485 16.665L113.705 17.145C113.735 15.545 113.425 14.36 112.775 13.59C112.125 12.82 110.995 12.435 109.385 12.435C108.275 12.435 107.335 12.685 106.565 13.185C105.805 13.685 105.27 14.475 104.96 15.555L102.815 14.925C103.185 13.475 103.93 12.35 105.05 11.55C106.17 10.75 107.625 10.35 109.415 10.35C110.895 10.35 112.15 10.63 113.18 11.19C114.22 11.74 114.955 12.54 115.385 13.59C115.585 14.06 115.715 14.585 115.775 15.165C115.835 15.745 115.865 16.335 115.865 16.935V27H113.9V22.935L114.47 23.175C113.92 24.565 113.065 25.625 111.905 26.355C110.745 27.085 109.355 27.45 107.735 27.45ZM107.99 25.545C109.02 25.545 109.92 25.36 110.69 24.99C111.46 24.62 112.08 24.115 112.55 23.475C113.02 22.825 113.325 22.095 113.465 21.285C113.585 20.765 113.65 20.195 113.66 19.575C113.67 18.945 113.675 18.475 113.675 18.165L114.515 18.6C113.765 18.7 112.95 18.8 112.07 18.9C111.2 19 110.34 19.115 109.49 19.245C108.65 19.375 107.89 19.53 107.21 19.71C106.75 19.84 106.305 20.025 105.875 20.265C105.445 20.495 105.09 20.805 104.81 21.195C104.54 21.585 104.405 22.07 104.405 22.65C104.405 23.12 104.52 23.575 104.75 24.015C104.99 24.455 105.37 24.82 105.89 25.11C106.42 25.4 107.12 25.545 107.99 25.545Z" fill="white"/>
<defs>
<linearGradient id="paint0_linear_133_454" x1="26.2813" y1="14.4592" x2="-2.71875" y2="14.4592" gradientUnits="userSpaceOnUse">
<stop stop-color="white"/>
<stop offset="1" stop-color="#6F78A4"/>
</linearGradient>
</defs>
</svg>
