<svg width="313" height="355" viewBox="0 0 313 355" fill="none" xmlns="http://www.w3.org/2000/svg">
<path d="M157.001 0C243.157 0.000260508 313.001 69.8437 313.001 156V199C313.001 285.156 243.156 355 157 355H36C16.1178 355 0 338.882 0 319V36C0 16.1177 16.1178 0 36 0H157.001ZM151.988 102.862C151.948 144.634 118.076 178.483 76.2979 178.483C75.972 178.483 75.6462 178.481 75.3213 178.477C75.3175 178.477 75.3145 178.48 75.3145 178.483C75.3145 178.487 75.3175 178.49 75.3213 178.49C75.6462 178.486 75.972 178.484 76.2979 178.484C117.771 178.485 151.453 211.841 151.983 253.19C151.983 253.194 151.986 253.196 151.989 253.196C151.993 253.196 151.995 253.194 151.995 253.19C152.521 212.17 185.673 179.016 226.691 178.49C226.695 178.49 226.698 178.487 226.698 178.483C226.698 178.48 226.695 178.477 226.691 178.476C185.369 177.947 152.028 144.304 151.988 102.862ZM151.989 101.805C151.986 101.805 151.983 101.807 151.983 101.811C151.987 102.11 151.988 102.41 151.988 102.711C151.989 102.41 151.991 102.11 151.995 101.811C151.995 101.807 151.992 101.805 151.989 101.805Z" fill="url(#paint0_linear_1_146)"/>
<defs>
<linearGradient id="paint0_linear_1_146" x1="334.001" y1="177.5" x2="-20.998" y2="177.5" gradientUnits="userSpaceOnUse">
<stop stop-color="white"/>
<stop offset="0.9999" stop-color="#6F78A4"/>
</linearGradient>
</defs>
</svg>
